<?xml version="1.0" encoding="utf-8"?>
<!-- Generator: Adobe Illustrator 19.0.0, SVG Export Plug-In . SVG Version: 6.00 Build 0)  -->
<svg version="1.1" id="Layer_1" xmlns="http://www.w3.org/2000/svg" xmlns:xlink="http://www.w3.org/1999/xlink" x="0px" y="0px"
	 viewBox="-5 59.2 600 640.4" style="enable-background:new -5 59.2 600 640.4;" xml:space="preserve">
<style type="text/css">
	.st0{fill:#F2F2F2;stroke:#999999;stroke-miterlimit:10;}
	.st1{fill:#FFFDEE;}
	.st2{fill:url(#SVGID_1_);fill-opacity:0.15;}
	.st3{fill:url(#SVGID_2_);fill-opacity:0.15;}
	.st4{fill:#8A8A8A;stroke:#666666;stroke-miterlimit:10;}
	.st5{fill:url(#SVGID_3_);stroke:#666666;stroke-miterlimit:10;}
	.st6{fill:#808080;stroke:#404040;stroke-miterlimit:10;}
	.st7{fill:url(#SVGID_4_);stroke:#666666;stroke-width:2;stroke-miterlimit:10;stroke-opacity:0.99;}
	.st8{fill:#CCCCCC;stroke:#666666;stroke-width:2;stroke-miterlimit:10;stroke-opacity:0.99;}
	.st9{opacity:0.4;fill:none;stroke:#808080;stroke-width:2;stroke-miterlimit:10;enable-background:new    ;}
	.st10{fill:url(#SVGID_5_);stroke:#666666;stroke-miterlimit:10;}
	.st11{fill:url(#SVGID_6_);stroke:#666666;stroke-miterlimit:10;}
	.st12{fill:#999999;stroke:#808080;stroke-miterlimit:10;}
	.st13{fill:url(#tapwater_1_);fill-opacity:0.86;}
	.st14{fill:url(#showerwater_1_);fill-opacity:0.5;}
	.st15{fill:none;stroke:#0074D3;stroke-miterlimit:10;}
	.st16{clip-path:url(#bathclip_1_);fill:url(#bathwater_1_);stroke:#0074D3;stroke-miterlimit:10;}
	.st17{fill:#64B7FF;stroke:#ABD8FF;stroke-miterlimit:10;}
	.st18{fill:url(#SVGID_7_);stroke:#454545;stroke-miterlimit:10;}
	.st19{clip-path:url(#SVGID_9_);fill:url(#SVGID_10_);stroke:url(#SVGID_11_);stroke-miterlimit:10;stroke-opacity:0.7;}
	.st20{fill:none;stroke:#B3B3B3;stroke-miterlimit:10;stroke-opacity:0.36;}
	.st21{fill:none;stroke:url(#SVGID_12_);stroke-width:2;stroke-miterlimit:10;}
	.st22{fill:none;stroke:url(#SVGID_13_);stroke-width:2;stroke-miterlimit:10;}
	.st23{fill:none;stroke:url(#SVGID_14_);stroke-width:2;stroke-miterlimit:10;}
	.st24{fill:none;stroke:url(#SVGID_15_);stroke-width:2;stroke-miterlimit:10;}
	.st25{fill:none;stroke:url(#SVGID_16_);stroke-width:2;stroke-miterlimit:10;}
	.st26{fill:none;stroke:url(#SVGID_17_);stroke-width:2;stroke-miterlimit:10;}
	.st27{font-family:'Helvetica';}
	.st28{font-size:15px;}
	.st29{fill:none;}
</style>
<g id="background">
	<rect x="-9.9" y="2" class="st0" width="606" height="804.3"/>
	<g>
		<rect x="-6" y="49" class="st1" width="48.2" height="48.2"/>
		<rect x="44.2" y="49" class="st1" width="48.2" height="48.2"/>
		<rect x="94.3" y="49" class="st1" width="48.2" height="48.2"/>
		<rect x="144.5" y="49" class="st1" width="48.2" height="48.2"/>
		<rect x="194.7" y="49" class="st1" width="48.2" height="48.2"/>
		<rect x="244.8" y="49" class="st1" width="48.2" height="48.2"/>
		<rect x="295" y="49" class="st1" width="48.2" height="48.2"/>
		<rect x="345.2" y="49" class="st1" width="48.2" height="48.2"/>
		<rect x="395.3" y="49" class="st1" width="48.2" height="48.2"/>
		<rect x="445.5" y="49" class="st1" width="48.2" height="48.2"/>
		<rect x="495.7" y="49" class="st1" width="48.2" height="48.2"/>
		<rect x="545.8" y="49" class="st1" width="48.2" height="48.2"/>
		<rect x="-6" y="99.2" class="st1" width="48.2" height="48.2"/>
		<rect x="44.2" y="99.2" class="st1" width="48.2" height="48.2"/>
		<rect x="94.3" y="99.2" class="st1" width="48.2" height="48.2"/>
		<rect x="144.5" y="99.2" class="st1" width="48.2" height="48.2"/>
		<rect x="194.7" y="99.2" class="st1" width="48.2" height="48.2"/>
		<rect x="244.8" y="99.2" class="st1" width="48.2" height="48.2"/>
		<rect x="295" y="99.2" class="st1" width="48.2" height="48.2"/>
		<rect x="345.2" y="99.2" class="st1" width="48.2" height="48.2"/>
		<rect x="395.3" y="99.2" class="st1" width="48.2" height="48.2"/>
		<rect x="445.5" y="99.2" class="st1" width="48.2" height="48.2"/>
		<rect x="495.7" y="99.2" class="st1" width="48.2" height="48.2"/>
		<rect x="545.8" y="99.2" class="st1" width="48.2" height="48.2"/>
		<rect x="-6" y="149.4" class="st1" width="48.2" height="48.2"/>
		<rect x="44.2" y="149.4" class="st1" width="48.2" height="48.2"/>
		<rect x="94.3" y="149.4" class="st1" width="48.2" height="48.2"/>
		<rect x="144.5" y="149.4" class="st1" width="48.2" height="48.2"/>
		<rect x="194.7" y="149.4" class="st1" width="48.2" height="48.2"/>
		<rect x="244.8" y="149.4" class="st1" width="48.2" height="48.2"/>
		<rect x="295" y="149.4" class="st1" width="48.2" height="48.2"/>
		<rect x="345.2" y="149.4" class="st1" width="48.2" height="48.2"/>
		<rect x="395.3" y="149.4" class="st1" width="48.2" height="48.2"/>
		<rect x="445.5" y="149.4" class="st1" width="48.2" height="48.2"/>
		<rect x="495.7" y="149.4" class="st1" width="48.2" height="48.2"/>
		<rect x="545.8" y="149.4" class="st1" width="48.2" height="48.2"/>
		<rect x="-6" y="199.6" class="st1" width="48.2" height="48.2"/>
		<rect x="44.2" y="199.6" class="st1" width="48.2" height="48.2"/>
		<rect x="94.3" y="199.6" class="st1" width="48.2" height="48.2"/>
		<rect x="144.5" y="199.6" class="st1" width="48.2" height="48.2"/>
		<rect x="194.7" y="199.6" class="st1" width="48.2" height="48.2"/>
		<rect x="244.8" y="199.6" class="st1" width="48.2" height="48.2"/>
		<rect x="295" y="199.6" class="st1" width="48.2" height="48.2"/>
		<rect x="345.2" y="199.6" class="st1" width="48.2" height="48.2"/>
		<rect x="395.3" y="199.6" class="st1" width="48.2" height="48.2"/>
		<rect x="445.5" y="199.6" class="st1" width="48.2" height="48.2"/>
		<rect x="495.7" y="199.6" class="st1" width="48.2" height="48.2"/>
		<rect x="545.8" y="199.6" class="st1" width="48.2" height="48.2"/>
		<rect x="-6" y="249.8" class="st1" width="48.2" height="48.2"/>
		<rect x="44.2" y="249.8" class="st1" width="48.2" height="48.2"/>
		<rect x="94.3" y="249.8" class="st1" width="48.2" height="48.2"/>
		<rect x="144.5" y="249.8" class="st1" width="48.2" height="48.2"/>
		<rect x="194.7" y="249.8" class="st1" width="48.2" height="48.2"/>
		<rect x="244.8" y="249.8" class="st1" width="48.2" height="48.2"/>
		<rect x="295" y="249.8" class="st1" width="48.2" height="48.2"/>
		<rect x="345.2" y="249.8" class="st1" width="48.2" height="48.2"/>
		<rect x="395.3" y="249.8" class="st1" width="48.2" height="48.2"/>
		<rect x="445.5" y="249.8" class="st1" width="48.2" height="48.2"/>
		<rect x="495.7" y="249.8" class="st1" width="48.2" height="48.2"/>
		<rect x="545.8" y="249.8" class="st1" width="48.2" height="48.2"/>
		<rect x="-6" y="300" class="st1" width="48.2" height="48.2"/>
		<rect x="44.2" y="300" class="st1" width="48.2" height="48.2"/>
		<rect x="94.3" y="300" class="st1" width="48.2" height="48.2"/>
		<rect x="144.5" y="300" class="st1" width="48.2" height="48.2"/>
		<rect x="194.7" y="300" class="st1" width="48.2" height="48.2"/>
		<rect x="244.8" y="300" class="st1" width="48.2" height="48.2"/>
		<rect x="295" y="300" class="st1" width="48.2" height="48.2"/>
		<rect x="345.2" y="300" class="st1" width="48.2" height="48.2"/>
		<rect x="395.3" y="300" class="st1" width="48.2" height="48.2"/>
		<rect x="445.5" y="300" class="st1" width="48.2" height="48.2"/>
		<rect x="495.7" y="300" class="st1" width="48.2" height="48.2"/>
		<rect x="545.8" y="300" class="st1" width="48.2" height="48.2"/>
		<rect x="-6" y="350.2" class="st1" width="48.2" height="48.2"/>
		<rect x="44.2" y="350.2" class="st1" width="48.2" height="48.2"/>
		<rect x="94.3" y="350.2" class="st1" width="48.2" height="48.2"/>
		<rect x="144.5" y="350.2" class="st1" width="48.2" height="48.2"/>
		<rect x="194.7" y="350.2" class="st1" width="48.2" height="48.2"/>
		<rect x="244.8" y="350.2" class="st1" width="48.2" height="48.2"/>
		<rect x="295" y="350.2" class="st1" width="48.2" height="48.2"/>
		<rect x="345.2" y="350.2" class="st1" width="48.2" height="48.2"/>
		<rect x="395.3" y="350.2" class="st1" width="48.2" height="48.2"/>
		<rect x="445.5" y="350.2" class="st1" width="48.2" height="48.2"/>
		<rect x="495.7" y="350.2" class="st1" width="48.2" height="48.2"/>
		<rect x="545.8" y="350.2" class="st1" width="48.2" height="48.2"/>
		<rect x="-6" y="400.4" class="st1" width="48.2" height="48.2"/>
		<rect x="44.2" y="400.4" class="st1" width="48.2" height="48.2"/>
		<rect x="94.3" y="400.4" class="st1" width="48.2" height="48.2"/>
		<rect x="144.5" y="400.4" class="st1" width="48.2" height="48.2"/>
		<rect x="194.7" y="400.4" class="st1" width="48.2" height="48.2"/>
		<rect x="244.8" y="400.4" class="st1" width="48.2" height="48.2"/>
		<rect x="295" y="400.4" class="st1" width="48.2" height="48.2"/>
		<rect x="345.2" y="400.4" class="st1" width="48.2" height="48.2"/>
		<rect x="395.3" y="400.4" class="st1" width="48.2" height="48.2"/>
		<rect x="445.5" y="400.4" class="st1" width="48.2" height="48.2"/>
		<rect x="495.7" y="400.4" class="st1" width="48.2" height="48.2"/>
		<rect x="545.8" y="400.4" class="st1" width="48.2" height="48.2"/>
		<rect x="-6" y="450.6" class="st1" width="48.2" height="48.2"/>
		<rect x="44.2" y="450.6" class="st1" width="48.2" height="48.2"/>
		<rect x="94.3" y="450.6" class="st1" width="48.2" height="48.2"/>
		<rect x="144.5" y="450.6" class="st1" width="48.2" height="48.2"/>
		<rect x="194.7" y="450.6" class="st1" width="48.2" height="48.2"/>
		<rect x="244.8" y="450.6" class="st1" width="48.2" height="48.2"/>
		<rect x="295" y="450.6" class="st1" width="48.2" height="48.2"/>
		<rect x="345.2" y="450.6" class="st1" width="48.2" height="48.2"/>
		<rect x="395.3" y="450.6" class="st1" width="48.2" height="48.2"/>
		<rect x="445.5" y="450.6" class="st1" width="48.2" height="48.2"/>
		<rect x="495.7" y="450.6" class="st1" width="48.2" height="48.2"/>
		<rect x="545.8" y="450.6" class="st1" width="48.2" height="48.2"/>
		<rect x="-6" y="500.8" class="st1" width="48.2" height="48.2"/>
		<rect x="44.2" y="500.8" class="st1" width="48.2" height="48.2"/>
		<rect x="94.3" y="500.8" class="st1" width="48.2" height="48.2"/>
		<rect x="144.5" y="500.8" class="st1" width="48.2" height="48.2"/>
		<rect x="194.7" y="500.8" class="st1" width="48.2" height="48.2"/>
		<rect x="244.8" y="500.8" class="st1" width="48.2" height="48.2"/>
		<rect x="295" y="500.8" class="st1" width="48.2" height="48.2"/>
		<rect x="345.2" y="500.8" class="st1" width="48.2" height="48.2"/>
		<rect x="395.3" y="500.8" class="st1" width="48.2" height="48.2"/>
		<rect x="445.5" y="500.8" class="st1" width="48.2" height="48.2"/>
		<rect x="495.7" y="500.8" class="st1" width="48.2" height="48.2"/>
		<rect x="545.8" y="500.8" class="st1" width="48.2" height="48.2"/>
		<polygon class="st1" points="-6,551 42.2,551 90.4,599.2 42.2,599.2 		"/>
		<polygon class="st1" points="44.2,551 92.3,551 140.5,599.2 92.4,599.2 		"/>
		<polygon class="st1" points="94.3,551 142.5,551 190.7,599.2 142.5,599.2 		"/>
		<polygon class="st1" points="144.5,551 192.7,551 240.9,599.2 192.7,599.2 		"/>
		<polygon class="st1" points="194.7,551 242.8,551 291,599.2 242.9,599.2 		"/>
		<polygon class="st1" points="244.8,551 293,551 341.2,599.2 293,599.2 		"/>
		<polygon class="st1" points="295,551 343.2,551 391.4,599.2 343.2,599.2 		"/>
		<polygon class="st1" points="345.2,551 393.3,551 441.5,599.2 393.4,599.2 		"/>
		<polygon class="st1" points="395.3,551 443.5,551 491.7,599.2 443.5,599.2 		"/>
		<polygon class="st1" points="445.5,551 493.7,551 541.9,599.2 493.7,599.2 		"/>
		<polygon class="st1" points="495.7,551 543.8,551 592,599.2 543.9,599.2 		"/>
		<polygon class="st1" points="545.8,551 594,551 642.2,599.2 594,599.2 		"/>
		<polygon class="st1" points="44.2,601.2 92.4,601.2 140.6,649.4 92.4,649.4 		"/>
		<polygon class="st1" points="94.4,601.2 142.5,601.2 190.7,649.4 142.6,649.4 		"/>
		<polygon class="st1" points="144.5,601.2 192.7,601.2 240.9,649.4 192.7,649.4 		"/>
		<polygon class="st1" points="194.7,601.2 242.9,601.2 291.1,649.4 242.9,649.4 		"/>
		<polygon class="st1" points="244.9,601.2 293,601.2 341.2,649.4 293.1,649.4 		"/>
		<polygon class="st1" points="295,601.2 343.2,601.2 391.4,649.4 343.2,649.4 		"/>
		<polygon class="st1" points="345.2,601.2 393.4,601.2 441.6,649.4 393.4,649.4 		"/>
		<polygon class="st1" points="395.4,601.2 443.5,601.2 491.7,649.4 443.6,649.4 		"/>
		<polygon class="st1" points="445.5,601.2 493.7,601.2 541.9,649.4 493.7,649.4 		"/>
		<polygon class="st1" points="495.7,601.2 543.9,601.2 592.1,649.4 543.9,649.4 		"/>
		<polygon class="st1" points="545.9,601.2 594,601.2 642.2,649.4 594.1,649.4 		"/>
		<polygon class="st1" points="94.4,651.4 142.6,651.4 190.8,699.6 142.6,699.6 		"/>
		<polygon class="st1" points="144.6,651.4 192.7,651.4 240.9,699.6 192.8,699.6 		"/>
		<polygon class="st1" points="194.7,651.4 242.9,651.4 291.1,699.6 242.9,699.6 		"/>
		<polygon class="st1" points="244.9,651.4 293.1,651.4 341.3,699.6 293.1,699.6 		"/>
		<polygon class="st1" points="295.1,651.4 343.2,651.4 391.4,699.6 343.3,699.6 		"/>
		<polygon class="st1" points="345.2,651.4 393.4,651.4 441.6,699.6 393.4,699.6 		"/>
		<polygon class="st1" points="395.4,651.4 443.6,651.4 491.8,699.6 443.6,699.6 		"/>
		<polygon class="st1" points="445.6,651.4 493.7,651.4 541.9,699.6 493.8,699.6 		"/>
		<polygon class="st1" points="495.7,651.4 543.9,651.4 592.1,699.6 543.9,699.6 		"/>
		<polygon class="st1" points="545.9,651.4 594.1,651.4 642.3,699.6 594.1,699.6 		"/>
		<polygon class="st1" points="144.6,701.6 192.8,701.6 241,749.8 192.8,749.8 		"/>
		<polygon class="st1" points="194.8,701.6 242.9,701.6 291.1,749.8 243,749.8 		"/>
		<polygon class="st1" points="244.9,701.6 293.1,701.6 341.3,749.8 293.1,749.8 		"/>
		<polygon class="st1" points="295.1,701.6 343.3,701.6 391.5,749.8 343.3,749.8 		"/>
		<polygon class="st1" points="345.3,701.6 393.4,701.6 441.6,749.8 393.5,749.8 		"/>
		<polygon class="st1" points="395.4,701.6 443.6,701.6 491.8,749.8 443.6,749.8 		"/>
		<polygon class="st1" points="445.6,701.6 493.8,701.6 542,749.8 493.8,749.8 		"/>
		<polygon class="st1" points="495.8,701.6 543.9,701.6 592.1,749.8 544,749.8 		"/>
		<polygon class="st1" points="545.9,701.6 594.1,701.6 642.3,749.8 594.1,749.8 		"/>
		<polygon class="st1" points="194.8,751.8 243,751.8 291.2,800 243,800 		"/>
		<polygon class="st1" points="245,751.8 293.1,751.8 341.3,800 293.2,800 		"/>
		<polygon class="st1" points="295.1,751.8 343.3,751.8 391.5,800 343.3,800 		"/>
		<polygon class="st1" points="345.3,751.8 393.5,751.8 441.7,800 393.5,800 		"/>
		<polygon class="st1" points="395.5,751.8 443.6,751.8 491.8,800 443.7,800 		"/>
		<polygon class="st1" points="445.6,751.8 493.8,751.8 542,800 493.8,800 		"/>
		<polygon class="st1" points="495.8,751.8 544,751.8 592.2,800 544,800 		"/>
		<polygon class="st1" points="546,751.8 594.1,751.8 642.3,800 594.2,800 		"/>
		<polygon class="st1" points="-56.2,551 -8,551 40.2,599.2 -8,599.2 		"/>
		<polygon class="st1" points="-56.1,601.2 -8,601.2 40.2,649.4 -7.9,649.4 		"/>
		<polygon class="st1" points="-6,601.2 42.2,601.2 90.4,649.4 42.2,649.4 		"/>
		<polygon class="st1" points="-56.1,651.4 -7.9,651.4 40.3,699.6 -7.9,699.6 		"/>
		<polygon class="st1" points="-5.9,651.4 42.2,651.4 90.4,699.6 42.3,699.6 		"/>
		<polygon class="st1" points="44.2,651.4 92.4,651.4 140.6,699.6 92.4,699.6 		"/>
		<polygon class="st1" points="-56.1,701.6 -7.9,701.6 40.3,749.8 -7.9,749.8 		"/>
		<polygon class="st1" points="-5.9,701.6 42.3,701.6 90.5,749.8 42.3,749.8 		"/>
		<polygon class="st1" points="44.3,701.6 92.4,701.6 140.6,749.8 92.5,749.8 		"/>
		<polygon class="st1" points="94.4,701.6 142.6,701.6 190.8,749.8 142.6,749.8 		"/>
		<polygon class="st1" points="-56,751.8 -7.9,751.8 40.3,800 -7.8,800 		"/>
		<polygon class="st1" points="-5.9,751.8 42.3,751.8 90.5,800 42.3,800 		"/>
		<polygon class="st1" points="44.3,751.8 92.5,751.8 140.7,800 92.5,800 		"/>
		<polygon class="st1" points="94.5,751.8 142.6,751.8 190.8,800 142.7,800 		"/>
		<polygon class="st1" points="144.6,751.8 192.8,751.8 241,800 192.8,800 		"/>
		<rect x="-5.8" y="-1" class="st1" width="48.2" height="48.2"/>
		<rect x="44.3" y="-1" class="st1" width="48.2" height="48.2"/>
		<rect x="94.5" y="-1" class="st1" width="48.2" height="48.2"/>
		<rect x="144.7" y="-1" class="st1" width="48.2" height="48.2"/>
		<rect x="194.8" y="-1" class="st1" width="48.2" height="48.2"/>
		<rect x="245" y="-1" class="st1" width="48.2" height="48.2"/>
		<rect x="295.1" y="-1" class="st1" width="48.2" height="48.2"/>
		<rect x="345.3" y="-1" class="st1" width="48.2" height="48.2"/>
		<rect x="395.5" y="-1" class="st1" width="48.2" height="48.2"/>
		<rect x="445.6" y="-1" class="st1" width="48.2" height="48.2"/>
		<rect x="495.8" y="-1" class="st1" width="48.2" height="48.2"/>
		<rect x="546" y="-1" class="st1" width="48.2" height="48.2"/>
	</g>
	
		<radialGradient id="SVGID_1_" cx="306.2702" cy="519.5618" r="309.2365" gradientTransform="matrix(0.8964 0 0 -1.0259 19.9594 798.2684)" gradientUnits="userSpaceOnUse">
		<stop  offset="0" style="stop-color:#8C8C8C;stop-opacity:0"/>
		<stop  offset="0.2798" style="stop-color:#8A8A89;stop-opacity:0.2798"/>
		<stop  offset="0.482" style="stop-color:#858580;stop-opacity:0.482"/>
		<stop  offset="0.6599" style="stop-color:#7D7C70;stop-opacity:0.6599"/>
		<stop  offset="0.8237" style="stop-color:#706F5A;stop-opacity:0.8237"/>
		<stop  offset="0.9765" style="stop-color:#615E3D;stop-opacity:0.9765"/>
		<stop  offset="1" style="stop-color:#5E5B38"/>
	</radialGradient>
	<rect x="-7" y="-21.5" class="st2" width="603" height="573.5"/>
	
		<linearGradient id="SVGID_2_" gradientUnits="userSpaceOnUse" x1="282.45" y1="-39" x2="282.45" y2="241" gradientTransform="matrix(1 0 0 -1 0 792)">
		<stop  offset="0" style="stop-color:#8C8C8C;stop-opacity:0"/>
		<stop  offset="0.1522" style="stop-color:#868684;stop-opacity:0.1522"/>
		<stop  offset="0.3819" style="stop-color:#767570;stop-opacity:0.3819"/>
		<stop  offset="0.6607" style="stop-color:#5D594E;stop-opacity:0.6607"/>
		<stop  offset="0.9754" style="stop-color:#39321F;stop-opacity:0.9754"/>
		<stop  offset="1" style="stop-color:#362F1B"/>
	</linearGradient>
	<rect x="-60.6" y="551" class="st3" width="686.1" height="280"/>
</g>
<g id="Bath">
	<path class="st4" d="M100.7,354.9v19c0,1.2-1,2.2-2.2,2.2l0,0c-1.2,0-2.2-1-2.2-2.2v-19c0-1.2,1-2.2,2.2-2.2l0,0
		C99.7,352.7,100.7,353.7,100.7,354.9z"/>
	<path class="st4" d="M105.4,361.4H91.5c-1.1,0-1.9-0.9-1.9-1.9v-0.6c0-1.1,0.9-1.9,1.9-1.9h13.9c1.1,0,1.9,0.9,1.9,1.9v0.6
		C107.3,360.5,106.5,361.4,105.4,361.4z"/>
	<circle class="st4" cx="98.5" cy="377.1" r="8.7"/>
	
		<linearGradient id="SVGID_3_" gradientUnits="userSpaceOnUse" x1="61.6" y1="381.4" x2="135.4" y2="381.4" gradientTransform="matrix(1 0 0 -1 0 792)">
		<stop  offset="0" style="stop-color:#696969"/>
		<stop  offset="0.503" style="stop-color:#9E9E9E"/>
		<stop  offset="1" style="stop-color:#6C6C6C"/>
	</linearGradient>
	<path class="st5" d="M78.6,447.2h-17v-41.4c0-17.5,14.3-31.8,31.8-31.8h10.2c17.5,0,31.8,14.3,31.8,31.8v5.4h-17v-5.4
		c0-8.2-6.6-14.8-14.8-14.8H93.4c-8.2,0-14.8,6.6-14.8,14.8C78.6,405.8,78.6,447.2,78.6,447.2z"/>
	<path class="st6" d="M540.5,418.7h-9V154.8c0-12.7-8.2-23.5-17.8-23.5H392.6c-9.7,0-17.8,10.8-17.8,23.5v42.7h-9v-42.7
		c0-17.9,12-32.5,26.8-32.5h121.1c14.8,0,26.8,14.6,26.8,32.5V418.7z"/>
	
		<linearGradient id="SVGID_4_" gradientUnits="userSpaceOnUse" x1="310.35" y1="175.2" x2="310.35" y2="383.1" gradientTransform="matrix(1 0 0 -1 0 792)">
		<stop  offset="0" style="stop-color:#9C9C9C"/>
		<stop  offset="0.3707" style="stop-color:#B4B4B4"/>
		<stop  offset="0.7241" style="stop-color:#C4C4C4"/>
		<stop  offset="1" style="stop-color:#C9C9C9"/>
	</linearGradient>
	<path class="st7" d="M482.9,616.8H137.1c-9.2,0-41.3,0-53.9-36.4l-35-116.9c0-9.2,7.6-16.8,16.8-16.8
		c148.4,10.3,303.9,2.4,463.3-31.7c9.2-2,18.3-4,27.4-6.1c1.1,0,7.1,0.1,11.9,4.9c3,3,4.9,7.2,4.9,11.9L527,587.4
		C515.1,616.8,492.1,616.8,482.9,616.8z"/>
	<path class="st8" d="M595,499"/>
	<g>
		<g>
			<path class="st9" d="M533.7,425.3c-64.6,12.7-137.4,23.6-217.3,30c-74.7,6-143.7,7.1-206,5.3"/>
		</g>
	</g>
	
		<radialGradient id="SVGID_5_" cx="96.3331" cy="188.3577" r="18.9079" gradientTransform="matrix(0.9848 0.1736 0.1736 -0.9848 -30.2034 786.1135)" gradientUnits="userSpaceOnUse">
		<stop  offset="0" style="stop-color:#FFF8C7"/>
		<stop  offset="1" style="stop-color:#FFE7B0"/>
	</radialGradient>
	<path class="st10" d="M85.2,636.2l-0.4-0.2c-5-2.9-6.7-9.3-3.8-14.3c1.4-2.8,4-5,5.5-7.8c1.9-3.9,1.9-10.5,4.1-14.3
		c2.8-4.9,10.7-4.3,16.1-1.2l0.4,0.2c6.3,3.4,9.8,9.5,7,14.5c-2.4,3.6-8,7.1-10.4,10.7c-1.7,2.6-2.3,6-4,8.6
		c-0.4,0.6-2.3,3.8-6.4,4.9C90.5,638,87.7,637.7,85.2,636.2z"/>
	
		<radialGradient id="SVGID_6_" cx="110.6582" cy="189.9954" r="18.8919" gradientTransform="matrix(-0.9848 0.1736 -0.1736 -0.9848 660.225 786.1135)" gradientUnits="userSpaceOnUse">
		<stop  offset="0" style="stop-color:#FFF8C7"/>
		<stop  offset="1" style="stop-color:#FFE7B0"/>
	</radialGradient>
	<path class="st11" d="M530.5,637.2l0.4-0.2c5-2.9,6.7-9.3,3.8-14.3c-1.4-2.8-4-5-5.5-7.8c-1.9-3.9-1.9-10.5-4.1-14.3
		c-2.8-4.9-10.7-4.3-16.1-1.2l-0.4,0.2c-6.3,3.4-9.8,9.5-7,14.5c2.4,3.6,8,7.1,10.4,10.7c1.7,2.6,2.3,6,4,8.6
		c0.4,0.6,2.3,3.8,6.4,4.9C525.1,638.9,528,638.6,530.5,637.2z"/>
	<path class="st12" d="M135.6,412.8h-16.9c-1.2,0-2.1-0.9-2.1-2.1v-0.2c0-1.2,0.9-2.1,2.1-2.1h16.9c1.2,0,2.1,0.9,2.1,2.1v0.2
		C137.7,411.9,136.8,412.8,135.6,412.8z"/>
</g>
<g id="Water1">
	
		<linearGradient id="tapwater_1_" gradientUnits="userSpaceOnUse" x1="108.9" y1="285.3" x2="150.4" y2="285.3" gradientTransform="matrix(1 0 0 -1 0 792)">
		<stop  offset="0" style="stop-color:#64B7FF;stop-opacity:0.4"/>
		<stop  offset="0.5102" style="stop-color:#64B7FF"/>
		<stop  offset="0.9905" style="stop-color:#64B7FF;stop-opacity:0.4"/>
	</linearGradient>
	<polygon id="tapwater" class="st13" points="150.4,600.2 108.9,600.2 121.4,413.2 134.7,413.2 	" transform-origin="127 600"/>
	
		<linearGradient id="showerwater_1_" gradientUnits="userSpaceOnUse" x1="314.7" y1="374.9" x2="433" y2="374.9" gradientTransform="matrix(1 0 0 -1 0 792)">
		<stop  offset="0" style="stop-color:#64B7FF;stop-opacity:0.4"/>
		<stop  offset="0.5102" style="stop-color:#64B7FF"/>
		<stop  offset="0.9905" style="stop-color:#64B7FF;stop-opacity:0.4"/>
	</linearGradient>
	<polygon id="showerwater" class="st14" points="433,602.3 314.7,602.3 336.7,231.9 406,231.9 	" transform-origin="375 600"/>
	<line id="showerstream5" class="st15" x1="393.2" y1="211.9" x2="394.2" y2="228.8"/>
	<line id="showerstream4" class="st15" x1="383.3" y1="212.4" x2="383.7" y2="229.2"/>
	<line id="showerstream3" class="st15" x1="375.4" y1="211.9" x2="375.4" y2="229.2"/>
	<line id="showerstream2" class="st15" x1="364" y1="212.4" x2="363.3" y2="228.8"/>
	<line id="showerstream1" class="st15" x1="347.8" y1="211.9" x2="347" y2="228.8"/>
	<line id="tapstream5" class="st15" x1="131.5" y1="413.9" x2="133.8" y2="436.7"/>
	<line id="tapstream4" class="st15" x1="132.7" y1="443.1" x2="134.4" y2="465.9"/>
	<line id="tapstream3" class="st15" x1="128.2" y1="424.2" x2="128.2" y2="447"/>
	<line id="tapstream2" class="st15" x1="124.7" y1="443.1" x2="123.3" y2="465.9"/>
	<line id="tapstream1" class="st15" x1="123" y1="413.9" x2="121.5" y2="436.7"/>
	<g>
		<g>
			<defs>
				<rect id="bathclip" x="-3.2" y="595" width="599.2" height="300"/>
			</defs>
			<clipPath id="bathclip_1_">
				<use xlink:href="#bathclip"  style="overflow:visible;"/>
			</clipPath>
			
				<radialGradient id="bathwater_1_" cx="311.15" cy="281.55" r="191.0339" gradientTransform="matrix(1 0 0 -1 0 792)" gradientUnits="userSpaceOnUse">
				<stop  offset="0" style="stop-color:#C4E2FF"/>
				<stop  offset="0.8542" style="stop-color:#64B7FF"/>
			</radialGradient>
			<path id="bathwater" class="st16" d="M477.4,606.4H144.2c-8.9,0-39.8,0-51.9-33.6L58.6,464.9c0-8.5,7.3-15.5,16.2-15.5
				l472.7-34.9c8.9,0,16.2,7,16.2,15.5l-43.8,149.2C508.4,606.4,486.3,606.4,477.4,606.4z"/>
		</g>
	</g>
	<circle id="bubble7" class="st17" cx="410.3" cy="596.8" r="4"/>
	<circle id="bubble6" class="st17" cx="363" cy="595.8" r="6.2"/>
	<circle id="bubble5" class="st17" cx="326.8" cy="596.8" r="4"/>
	<circle id="bubble3" class="st17" cx="151.4" cy="594.8" r="6.2"/>
	<circle id="bubble4" class="st17" cx="154.4" cy="595.8" r="4"/>
	<circle id="bubble2" class="st17" cx="112.3" cy="593.9" r="6.2"/>
	<circle id="bubble1" class="st17" cx="116.4" cy="596.9" r="4"/>
</g>
<g id="showerhead">
	
		<linearGradient id="SVGID_7_" gradientUnits="userSpaceOnUse" x1="356.3" y1="611.35" x2="384.3" y2="611.35" gradientTransform="matrix(1 0 0 -1 0 792)">
		<stop  offset="0" style="stop-color:#555555"/>
		<stop  offset="0.5" style="stop-color:#8F8F8F"/>
		<stop  offset="1" style="stop-color:#616161"/>
	</linearGradient>
	<path class="st18" d="M376.3,196.9h-12c-4.4,0-8-3.6-8-8v-16.5c0-4.4,3.6-8,8-8h12c4.4,0,8,3.6,8,8v16.5
		C384.3,193.3,380.7,196.9,376.3,196.9z"/>
	<g>
		<g>
			<g>
				<g>
					<g>
						<g>
							<g>
								<g>
									<g>
										<g>
											<defs>
												<rect id="SVGID_8_" x="296.4" y="159.9" width="145.7" height="71.8"/>
											</defs>
											<clipPath id="SVGID_9_">
												<use xlink:href="#SVGID_8_"  style="overflow:visible;"/>
											</clipPath>
											
												<radialGradient id="SVGID_10_" cx="377.7751" cy="572.6899" r="54.8167" gradientTransform="matrix(0.8968 0 0 -0.8658 32.4113 714.9349)" gradientUnits="userSpaceOnUse">
												<stop  offset="0.2" style="stop-color:#B6B6B6"/>
												<stop  offset="1" style="stop-color:#727272"/>
											</radialGradient>
											
												<linearGradient id="SVGID_11_" gradientUnits="userSpaceOnUse" x1="322" y1="572.9" x2="420.4" y2="572.9" gradientTransform="matrix(1 0 0 -1 0 792)">
												<stop  offset="0" style="stop-color:#030303"/>
												<stop  offset="1" style="stop-color:#020202"/>
											</linearGradient>
											<ellipse class="st19" cx="371.2" cy="219.1" rx="48.7" ry="47.9"/>
										</g>
									</g>
								</g>
							</g>
						</g>
					</g>
				</g>
			</g>
		</g>
	</g>
</g>
<g id="Decals">
	<line class="st20" x1="81.5" y1="571" x2="530.2" y2="571"/>
	<line class="st20" x1="69.5" y1="531.3" x2="540.5" y2="531.3"/>
	<line class="st20" x1="57.6" y1="492.2" x2="552.5" y2="492.2"/>
	<g>
		
			<linearGradient id="SVGID_12_" gradientUnits="userSpaceOnUse" x1="200" y1="260.75" x2="202" y2="260.75" gradientTransform="matrix(1 0 0 -1 0 792)">
			<stop  offset="0" style="stop-color:#030303"/>
			<stop  offset="1" style="stop-color:#020202"/>
		</linearGradient>
		<line class="st21" x1="201" y1="455.3" x2="201" y2="607.2"/>
		
			<linearGradient id="SVGID_13_" gradientUnits="userSpaceOnUse" x1="200" y1="184.8" x2="204.6667" y2="184.8" gradientTransform="matrix(1 0 0 -1 0 792)">
			<stop  offset="0" style="stop-color:#030303"/>
			<stop  offset="1" style="stop-color:#020202"/>
		</linearGradient>
		<line class="st22" x1="200" y1="607.2" x2="204.7" y2="607.2"/>
		
			<linearGradient id="SVGID_14_" gradientUnits="userSpaceOnUse" x1="200" y1="336.7" x2="204.6667" y2="336.7" gradientTransform="matrix(1 0 0 -1 0 792)">
			<stop  offset="0" style="stop-color:#030303"/>
			<stop  offset="1" style="stop-color:#020202"/>
		</linearGradient>
		<line class="st23" x1="200" y1="455.3" x2="204.7" y2="455.3"/>
		
			<linearGradient id="SVGID_15_" gradientUnits="userSpaceOnUse" x1="200" y1="260.7" x2="204.6667" y2="260.7" gradientTransform="matrix(1 0 0 -1 0 792)">
			<stop  offset="0" style="stop-color:#030303"/>
			<stop  offset="1" style="stop-color:#020202"/>
		</linearGradient>
		<line class="st24" x1="200" y1="531.3" x2="204.7" y2="531.3"/>
		
			<linearGradient id="SVGID_16_" gradientUnits="userSpaceOnUse" x1="200" y1="299.8" x2="204.6667" y2="299.8" gradientTransform="matrix(1 0 0 -1 0 792)">
			<stop  offset="0" style="stop-color:#030303"/>
			<stop  offset="1" style="stop-color:#020202"/>
		</linearGradient>
		<line class="st25" x1="200" y1="492.2" x2="204.7" y2="492.2"/>
		
			<linearGradient id="SVGID_17_" gradientUnits="userSpaceOnUse" x1="200" y1="221" x2="204.6667" y2="221" gradientTransform="matrix(1 0 0 -1 0 792)">
			<stop  offset="0" style="stop-color:#030303"/>
			<stop  offset="1" style="stop-color:#020202"/>
		</linearGradient>
		<line class="st26" x1="200" y1="571" x2="204.7" y2="571"/>
	</g>
	<text transform="matrix(1 0 0 1 160.6519 534.667)" class="st27 st28">Voice</text>
	<text transform="matrix(1 0 0 1 165.105 575.0003)" class="st27 st28">Web</text>
	<text transform="matrix(1 0 0 1 160.0903 496.667)" class="st27 st28">Video</text>
	<path class="st29" d="M-2,0"/>
</g>
		<image style="overflow:visible;enable-background:new    ;" width="72" height="60" id="duck" xlink:href="duck.png"  x="240" y="548">
</image>
<image style="overflow:visible;" width="188" height="124" xlink:href="sponge.png"  transform="matrix(0.4201 0 0 0.4386 2.5242 632.9667)">
</image>
</svg>
